<svg width="28" height="28" viewBox="0 0 28 28" fill="none" xmlns="http://www.w3.org/2000/svg">
<mask id="mask0_2005_20" style="mask-type:alpha" maskUnits="userSpaceOnUse" x="5" y="5" width="18" height="18">
<path d="M20.9999 15.1666H15.1666V21C15.1666 21.6416 14.6416 22.1666 13.9999 22.1666C13.3583 22.1666 12.8333 21.6416 12.8333 21V15.1666H6.99992C6.35825 15.1666 5.83325 14.6416 5.83325 14C5.83325 13.3583 6.35825 12.8333 6.99992 12.8333H12.8333V6.99998C12.8333 6.35831 13.3583 5.83331 13.9999 5.83331C14.6416 5.83331 15.1666 6.35831 15.1666 6.99998V12.8333H20.9999C21.6416 12.8333 22.1666 13.3583 22.1666 14C22.1666 14.6416 21.6416 15.1666 20.9999 15.1666Z" fill="black"/>
</mask>
<g mask="url(#mask0_2005_20)">
<rect width="28" height="28" fill="#FDFEFF"/>
</g>
</svg>
