<svg width="25" height="24" viewBox="0 0 25 24" fill="none" xmlns="http://www.w3.org/2000/svg">
<g opacity="0.5">
<path fill-rule="evenodd" clip-rule="evenodd" d="M14.5 10V8.5C14.5 7.67157 13.8284 7 13 7C12.1716 7 11.5 7.67157 11.5 8.5V10H14.5ZM9.5 8.5V10C7.84315 10 6.5 11.3431 6.5 13V17C6.5 18.6569 7.84315 20 9.5 20H16.5C18.1569 20 19.5 18.6569 19.5 17V13C19.5 11.3431 18.1569 10 16.5 10V8.5C16.5 6.567 14.933 5 13 5C11.067 5 9.5 6.567 9.5 8.5ZM14.5 12H16.5C17.0523 12 17.5 12.4477 17.5 13V17C17.5 17.5523 17.0523 18 16.5 18H9.5C8.94772 18 8.5 17.5523 8.5 17V13C8.5 12.4477 8.94772 12 9.5 12H11.5H14.5ZM13 17C13.8284 17 14.5 16.3284 14.5 15.5C14.5 14.6716 13.8284 14 13 14C12.1716 14 11.5 14.6716 11.5 15.5C11.5 16.3284 12.1716 17 13 17Z" fill="#52525C"/>
</g>
</svg>
