<svg width="20" height="21" viewBox="0 0 20 21" fill="none" xmlns="http://www.w3.org/2000/svg">
<g clip-path="url(#clip0_2001_1697)">
<path d="M10 0.5C8.61979 0.5 7.32422 0.760416 6.11328 1.28125C4.88932 1.80208 3.82487 2.51497 2.91992 3.41992C2.01497 4.32487 1.30208 5.38932 0.78125 6.61328C0.260417 7.82422 0 9.11979 0 10.5C0 11.8802 0.260417 13.1758 0.78125 14.3867C1.30208 15.6107 2.01497 16.6751 2.91992 17.5801C3.82487 18.485 4.88932 19.1979 6.11328 19.7188C7.32422 20.2396 8.61979 20.5 10 20.5C11.3802 20.5 12.6758 20.2396 13.8867 19.7188C15.1107 19.1979 16.1751 18.485 17.0801 17.5801C17.985 16.6751 18.6979 15.6107 19.2188 14.3867C19.7396 13.1758 20 11.8802 20 10.5C20 9.11979 19.7396 7.82422 19.2188 6.61328C18.6979 5.38932 17.985 4.32487 17.0801 3.41992C16.1751 2.51497 15.1107 1.80208 13.8867 1.28125C12.6758 0.760416 11.3802 0.5 10 0.5ZM9.00391 18.4297C8.01432 18.3125 7.09635 18.0195 6.25 17.5508C5.39062 17.0951 4.64844 16.5156 4.02344 15.8125C3.39844 15.1094 2.90365 14.3021 2.53906 13.3906C2.17448 12.4792 1.99219 11.5156 1.99219 10.5C1.99219 10.1875 2.01172 9.88151 2.05078 9.58203C2.08984 9.28255 2.14193 8.98958 2.20703 8.70312L6.99219 13.5078V14.5039C6.99219 15.0508 7.1875 15.5195 7.57812 15.9102C7.96875 16.3008 8.44401 16.4961 9.00391 16.4961V18.4297ZM15.8984 15.8906C15.7682 15.487 15.5306 15.1549 15.1855 14.8945C14.8405 14.6341 14.4466 14.5039 14.0039 14.5039H13.0078V11.4961C13.0078 11.2227 12.9102 10.9883 12.7148 10.793C12.5195 10.5977 12.2786 10.5 11.9922 10.5H5.99609V8.50781H8.00781C8.28125 8.50781 8.51562 8.41016 8.71094 8.21484C8.90625 8.01953 9.00391 7.77865 9.00391 7.49219V5.5H10.9961C11.556 5.5 12.0312 5.30469 12.4219 4.91406C12.8125 4.52344 13.0078 4.05469 13.0078 3.50781V3.07812C13.737 3.3776 14.4076 3.77474 15.0195 4.26953C15.6315 4.76432 16.1589 5.33398 16.6016 5.97852C17.0443 6.62305 17.3893 7.32943 17.6367 8.09766C17.8841 8.85286 18.0078 9.65365 18.0078 10.5C18.0078 11.5417 17.819 12.5247 17.4414 13.4492C17.0638 14.3737 16.5495 15.1875 15.8984 15.8906Z" fill="#1A1A1A"/>
</g>
<defs>
<clipPath id="clip0_2001_1697">
<rect width="20" height="20" fill="white" transform="matrix(1 0 0 -1 0 20.5)"/>
</clipPath>
</defs>
</svg>
