<svg width="35" height="32" viewBox="0 0 35 32" fill="none" xmlns="http://www.w3.org/2000/svg">
<path d="M7.2915 12C7.2915 10.1144 7.2915 9.17157 7.87729 8.58579C8.46308 8 9.40589 8 11.2915 8H18.6501C19.5202 8 19.9553 8 20.3412 8.17045C20.7272 8.3409 21.0203 8.66242 21.6064 9.30548L25.2522 13.3055C26.4188 14.5854 27.0021 15.2253 27.0021 16C27.0021 16.7747 26.4188 17.4146 25.2522 18.6945L21.6064 22.6945C21.0203 23.3376 20.7272 23.6591 20.3412 23.8296C19.9553 24 19.5202 24 18.6501 24H11.2915C9.40589 24 8.46308 24 7.87729 23.4142C7.2915 22.8284 7.2915 21.8856 7.2915 20V12Z" fill="#222222"/>
</svg>
