<svg width="46" height="41" viewBox="0 0 46 41" fill="none" xmlns="http://www.w3.org/2000/svg">
<path d="M19.8262 12.4617C21.0301 9.79388 21.632 8.45998 22.61 8.27511C22.8671 8.22649 23.1329 8.22649 23.39 8.27511C24.368 8.45998 24.9699 9.79388 26.1738 12.4617C26.8585 13.9788 27.2008 14.7374 27.8413 15.2533C28.021 15.3981 28.216 15.5269 28.4236 15.6382C29.164 16.0348 30.0881 16.1084 31.9365 16.2555C35.0654 16.5046 36.6299 16.6292 37.1076 17.4221C37.2066 17.5863 37.2738 17.7641 37.3066 17.9481C37.465 18.8365 36.3149 19.7666 34.0147 21.6268L33.3759 22.1433C32.3005 23.013 31.7628 23.4478 31.4518 23.9905C31.2652 24.316 31.1402 24.6666 31.0815 25.0282C30.9838 25.631 31.1413 26.2619 31.4562 27.5235L31.5687 27.9743C32.1335 30.2368 32.4158 31.3681 32.0633 31.9242C31.7467 32.4236 31.1635 32.7434 30.5193 32.7708C29.802 32.8012 28.7914 32.0692 26.7702 30.6052C25.4386 29.6407 24.7728 29.1584 24.0336 28.97C23.3582 28.7979 22.6419 28.7979 21.9664 28.97C21.2272 29.1584 20.5614 29.6407 19.2298 30.6052C17.2086 32.0692 16.198 32.8012 15.4808 32.7708C14.8365 32.7434 14.2533 32.4236 13.9367 31.9242C13.5842 31.3681 13.8666 30.2368 14.4313 27.9743L14.5438 27.5235C14.8587 26.2619 15.0162 25.631 14.9185 25.0282C14.8599 24.6666 14.7348 24.316 14.5482 23.9905C14.2372 23.4478 13.6995 23.013 12.6241 22.1433L11.9853 21.6268C9.6851 19.7666 8.53498 18.8365 8.69337 17.9481C8.72617 17.7641 8.79345 17.5863 8.89239 17.4221C9.37014 16.6292 10.9346 16.5046 14.0635 16.2555C15.9119 16.1084 16.8361 16.0348 17.5764 15.6382C17.784 15.5269 17.9791 15.3981 18.1587 15.2533C18.7992 14.7374 19.1416 13.9788 19.8262 12.4617Z" fill="#222222" stroke="#222222" stroke-width="2"/>
</svg>
