<svg width="24" height="25" viewBox="0 0 24 25" fill="none" xmlns="http://www.w3.org/2000/svg">
<path d="M10.3075 7.27913C10.9496 5.67844 11.2706 4.8781 11.7922 4.76718C11.9293 4.73801 12.0711 4.73801 12.2082 4.76718C12.7298 4.8781 13.0508 5.67844 13.6929 7.27913C14.058 8.18941 14.2406 8.64455 14.5822 8.95412C14.678 9.04095 14.782 9.11828 14.8928 9.18503C15.2876 9.423 15.7805 9.46715 16.7663 9.55543C18.4351 9.70488 19.2695 9.77961 19.5243 10.2554C19.577 10.3539 19.6129 10.4606 19.6304 10.571C19.7149 11.104 19.1015 11.662 17.8747 12.7782L17.534 13.0881C16.9605 13.6099 16.6737 13.8708 16.5078 14.1964C16.4083 14.3917 16.3416 14.6021 16.3104 14.819C16.2582 15.1807 16.3422 15.5592 16.5102 16.3162L16.5702 16.5867C16.8714 17.9442 17.022 18.623 16.834 18.9566C16.6651 19.2563 16.3541 19.4482 16.0105 19.4646C15.6279 19.4828 15.089 19.0436 14.011 18.1652C13.3008 17.5865 12.9457 17.2972 12.5515 17.1841C12.1912 17.0808 11.8092 17.0808 11.4489 17.1841C11.0547 17.2972 10.6996 17.5865 9.98941 18.1652C8.91144 19.0436 8.37245 19.4828 7.98993 19.4646C7.64633 19.4482 7.33528 19.2563 7.16642 18.9566C6.97842 18.623 7.12902 17.9442 7.43022 16.5867L7.49023 16.3162C7.65818 15.5592 7.74216 15.1807 7.69004 14.819C7.65878 14.6021 7.59207 14.3917 7.49257 14.1964C7.32669 13.8708 7.03992 13.6099 6.46637 13.0881L6.1257 12.7782C4.89891 11.662 4.28552 11.104 4.36999 10.571C4.38749 10.4606 4.42337 10.3539 4.47614 10.2554C4.73094 9.77961 5.56532 9.70488 7.23408 9.55543C8.21986 9.46715 8.71276 9.423 9.1076 9.18503C9.21834 9.11828 9.32236 9.04095 9.41818 8.95412C9.75979 8.64455 9.94236 8.18941 10.3075 7.27913Z" fill="#222222" stroke="#222222" stroke-width="2"/>
</svg>
