<svg width="31" height="34" viewBox="0 0 31 34" fill="none" xmlns="http://www.w3.org/2000/svg">
<path fill-rule="evenodd" clip-rule="evenodd" d="M0 7.35978C0 5.11957 0 3.99946 0.435974 3.14382C0.819467 2.39117 1.43139 1.77925 2.18404 1.39575C3.03969 0.959778 4.15979 0.959778 6.4 0.959778H24.6C26.8402 0.959778 27.9603 0.959778 28.816 1.39575C29.5686 1.77925 30.1805 2.39117 30.564 3.14382C31 3.99946 31 5.11957 31 7.35978V20.7236C31 22.9638 31 24.0839 30.564 24.9396C30.1805 25.6922 29.5686 26.3041 28.816 26.6876C27.9603 27.1236 26.8402 27.1236 24.6 27.1236H7.3272C7.04781 27.1236 6.78117 27.2405 6.59184 27.4459L1.73537 32.7159C1.1182 33.3856 0 32.9489 0 32.0382V27.1236V27.1236V17.7794V7.35978ZM10.3333 9.30399C9.78101 9.30399 9.33329 9.7517 9.33329 10.304C9.33329 10.8563 9.78101 11.304 10.3333 11.304H20.6666C21.2189 11.304 21.6666 10.8563 21.6666 10.304C21.6666 9.7517 21.2189 9.30399 20.6666 9.30399H10.3333ZM10.3333 16.7794C9.78101 16.7794 9.33329 17.2271 9.33329 17.7794C9.33329 18.3316 9.78101 18.7794 10.3333 18.7794H15.5C16.0522 18.7794 16.5 18.3316 16.5 17.7794C16.5 17.2271 16.0522 16.7794 15.5 16.7794H10.3333Z" fill="#222222"/>
</svg>
